<mxfile host="app.diagrams.net" modified="2023-02-01T07:25:20.984Z" agent="5.0 (Windows NT 10.0; Win64; x64) AppleWebKit/537.36 (KHTML, like Gecko) Chrome/109.0.0.0 Safari/537.36" version="20.8.2" etag="t6RJxc6lr7nVyRVozlk9" type="github">
  <diagram id="h6WV9ae7qqkIJmSiJ3EW" name="业务大图">
    <mxGraphModel dx="780" dy="418" grid="0" gridSize="10" guides="1" tooltips="1" connect="1" arrows="1" fold="1" page="1" pageScale="1" pageWidth="827" pageHeight="1169" math="0" shadow="0">
      <root>
        <mxCell id="0" />
        <mxCell id="1" parent="0" />
      </root>
    </mxGraphModel>
  </diagram>
</mxfile>
